<svg class="dark-logo" width="102" height="24" viewBox="0 0 102 24" fill="none" xmlns="http://www.w3.org/2000/svg">
  <path d="M9.34072 19.4792C6.68144 19.4792 4.52078 17.3186 4.52078 14.6593C4.52078 12 6.68144 9.83934 9.34072 9.83934C12 9.83934 14.1274 12 14.1274 14.6593C14.1274 17.3186 12 19.4792 9.34072 19.4792ZM9.34072 5.31856C8.74238 5.31856 8.21053 5.38504 7.64543 5.45152L4.52078 7.27978V0H0V23.7008H4.52078V22.0388L7.64543 23.867C8.21053 23.9668 8.74238 24 9.34072 24C14.4931 24 18.6814 19.8116 18.6814 14.6593C18.6814 9.50693 14.4931 5.31856 9.34072 5.31856Z" fill="black"></path>
  <path d="M25.7423 9.00831V5.61773H21.2215V15.5568C21.2215 19.446 23.8476 22.7368 27.4376 23.7008C28.1357 23.9003 28.867 24 29.6315 24C30.4293 24 31.1606 23.9003 31.8586 23.7008C35.4487 22.7368 38.0747 19.446 38.0747 15.5568V5.61773H33.5539V15.5568C33.5539 17.7175 31.7922 19.4792 29.6315 19.4792C27.5041 19.4792 25.7423 17.7175 25.7423 15.5568V9.00831Z" fill="black"></path>
  <path d="M41.4539 5.61773V23.7008H45.9746V5.61773H41.4539ZM41.4539 4.02216H45.9746V0H41.4539V4.02216Z" fill="black"></path>
  <path d="M54.2524 23.7008V0H49.7317V23.7008H54.2524Z" fill="black"></path>
  <path d="M61.6659 14.6593C61.6659 12 63.8266 9.83934 66.4859 9.83934C69.1452 9.83934 71.2726 12 71.2726 14.6593C71.2726 17.3186 69.1452 19.4792 66.4859 19.4792C63.8266 19.4792 61.6659 17.3186 61.6659 14.6593ZM57.1452 14.6593C57.1452 19.8116 61.3003 24 66.4859 24C67.051 24 67.5828 23.9668 68.1479 23.867L71.2726 22.0388V23.7008H75.8266V0H71.2726V7.27978L68.1479 5.45152C67.5828 5.38504 67.051 5.31856 66.4859 5.31856C61.3003 5.31856 57.1452 9.50693 57.1452 14.6593Z" fill="black"></path>
  <path d="M83.5852 23.7341V19.1801H79.0645V23.7341H83.5852Z" fill="#95E709"></path>
  <path fill-rule="evenodd" clip-rule="evenodd" d="M100.11 12.7425H92.5311L91.9661 16.266C95.3566 15.568 98.9799 17.23 100.575 20.4876C101.101 21.5081 101.368 22.6149 101.376 23.7009H96.8444C96.8164 23.2843 96.7148 22.8716 96.5201 22.4821C95.7223 20.8533 93.7278 20.1885 92.099 20.9863C91.7001 21.1857 91.3677 21.4516 91.1018 21.7508C90.9356 21.917 90.8026 22.1165 90.7029 22.2827L86.7805 20.0223L87.9439 12.7425L88.5755 8.72033L88.6752 8.18848L90.1046 8.22172H100.11V12.7425Z" fill="black"></path>
</svg>